<svg width="128" height="128" viewBox="0 0 128 128" fill="none" xmlns="http://www.w3.org/2000/svg">
<path d="M107.515 3.51472C112.201 -1.17157 119.799 -1.17157 124.485 3.51472C129.172 8.20101 129.172 15.7991 124.485 20.4854L94.5472 50.4236C89.795 55.1758 87.4189 57.5519 86.5287 60.2919C85.7456 62.702 85.7456 65.2982 86.5287 67.7083C87.4189 70.4482 89.795 72.8243 94.5472 77.5765L124.485 107.515C129.172 112.201 129.172 119.799 124.485 124.485C119.799 129.172 112.201 129.172 107.515 124.485L77.5765 94.5472C72.8243 89.795 70.4482 87.4189 67.7083 86.5287C65.2982 85.7456 62.702 85.7456 60.2919 86.5287C57.5519 87.4189 55.1758 89.795 50.4236 94.5472L20.4854 124.485C15.7991 129.172 8.20101 129.172 3.51472 124.485C-1.17157 119.799 -1.17157 112.201 3.51472 107.515L33.4529 77.5765C38.2051 72.8243 40.5812 70.4482 41.4715 67.7083C42.2546 65.2982 42.2546 62.702 41.4715 60.2919C40.5812 57.5519 38.2051 55.1758 33.4529 50.4236L3.51472 20.4854C-1.17157 15.7991 -1.17157 8.20101 3.51472 3.51472C8.20101 -1.17157 15.7991 -1.17157 20.4854 3.51472L50.4236 33.4529C55.1758 38.2051 57.5519 40.5812 60.2919 41.4715C62.702 42.2546 65.2982 42.2546 67.7083 41.4715C70.4482 40.5812 72.8243 38.2051 77.5765 33.4529L107.515 3.51472Z" fill="black"/>
</svg>
