<svg width="222" height="201" viewBox="0 0 222 201" fill="none" xmlns="http://www.w3.org/2000/svg">
<mask id="path-1-outside-1_61_5" maskUnits="userSpaceOnUse" x="-8.39233e-05" y="0" width="222" height="201" fill="black">
<rect fill="white" x="-8.39233e-05" width="222" height="201"/>
<path d="M69.3082 45C82.9497 21.3722 89.7705 9.55834 98.6754 5.59363C106.443 2.13546 115.312 2.13546 123.08 5.59363C131.984 9.55834 138.805 21.3722 152.447 45L199.212 126C212.854 149.628 219.674 161.442 218.655 171.136C217.767 179.592 213.332 187.273 206.453 192.271C198.567 198 184.926 198 157.643 198H64.1121C36.8291 198 23.1876 198 15.3016 192.271C8.42314 187.273 3.98824 179.592 3.09952 171.136C2.08062 161.442 8.90137 149.628 22.5429 126L69.3082 45Z"/>
<path d="M107.567 46.32C109.947 45.8667 112.327 45.98 114.707 46.66C120.034 48.02 123.661 51.25 125.587 56.35C126.041 58.05 125.927 61.5633 125.247 66.89C124.794 69.8367 123.491 78.28 121.337 92.22C118.164 112.847 116.181 123.5 115.387 124.18C114.594 124.52 111.874 124.577 107.227 124.35C106.321 124.35 105.811 124.293 105.697 124.18C105.131 123.84 104.621 122.537 104.167 120.27C103.827 118.23 102.354 108.88 99.7475 92.22C96.4608 70.6867 94.9308 59.1833 95.1575 57.71C95.1575 57.4833 95.2708 57.03 95.4975 56.35C96.9708 51.59 100.427 48.4167 105.867 46.83C106.434 46.6033 107.001 46.4333 107.567 46.32ZM107.737 135.4C109.664 134.947 111.874 135.06 114.367 135.74C119.354 136.987 122.811 140.047 124.737 144.92C125.077 145.487 125.304 146.11 125.417 146.79C126.097 149.397 126.097 151.947 125.417 154.44C124.057 159.653 120.884 163.167 115.897 164.98C115.331 165.207 114.821 165.377 114.367 165.49C111.761 166.17 109.211 166.17 106.717 165.49C101.504 164.13 97.9908 160.957 96.1775 155.97C95.9508 155.403 95.7808 154.893 95.6675 154.44C94.9875 151.947 94.9875 149.397 95.6675 146.79C96.5741 143.39 98.2741 140.727 100.767 138.8C102.694 137.213 105.017 136.08 107.737 135.4Z"/>
</mask>
<path d="M69.3082 45C82.9497 21.3722 89.7705 9.55834 98.6754 5.59363C106.443 2.13546 115.312 2.13546 123.08 5.59363C131.984 9.55834 138.805 21.3722 152.447 45L199.212 126C212.854 149.628 219.674 161.442 218.655 171.136C217.767 179.592 213.332 187.273 206.453 192.271C198.567 198 184.926 198 157.643 198H64.1121C36.8291 198 23.1876 198 15.3016 192.271C8.42314 187.273 3.98824 179.592 3.09952 171.136C2.08062 161.442 8.90137 149.628 22.5429 126L69.3082 45Z" fill="#FF5B45"/>
<path d="M107.567 46.32C109.947 45.8667 112.327 45.98 114.707 46.66C120.034 48.02 123.661 51.25 125.587 56.35C126.041 58.05 125.927 61.5633 125.247 66.89C124.794 69.8367 123.491 78.28 121.337 92.22C118.164 112.847 116.181 123.5 115.387 124.18C114.594 124.52 111.874 124.577 107.227 124.35C106.321 124.35 105.811 124.293 105.697 124.18C105.131 123.84 104.621 122.537 104.167 120.27C103.827 118.23 102.354 108.88 99.7475 92.22C96.4608 70.6867 94.9308 59.1833 95.1575 57.71C95.1575 57.4833 95.2708 57.03 95.4975 56.35C96.9708 51.59 100.427 48.4167 105.867 46.83C106.434 46.6033 107.001 46.4333 107.567 46.32ZM107.737 135.4C109.664 134.947 111.874 135.06 114.367 135.74C119.354 136.987 122.811 140.047 124.737 144.92C125.077 145.487 125.304 146.11 125.417 146.79C126.097 149.397 126.097 151.947 125.417 154.44C124.057 159.653 120.884 163.167 115.897 164.98C115.331 165.207 114.821 165.377 114.367 165.49C111.761 166.17 109.211 166.17 106.717 165.49C101.504 164.13 97.9908 160.957 96.1775 155.97C95.9508 155.403 95.7808 154.893 95.6675 154.44C94.9875 151.947 94.9875 149.397 95.6675 146.79C96.5741 143.39 98.2741 140.727 100.767 138.8C102.694 137.213 105.017 136.08 107.737 135.4Z" fill="white"/>
<path d="M69.3082 45L66.7102 43.5L66.7102 43.5L69.3082 45ZM98.6754 5.59363L97.4551 2.853L97.4551 2.853L98.6754 5.59363ZM123.08 5.59363L124.3 2.853L124.3 2.853L123.08 5.59363ZM152.447 45L149.849 46.5L149.849 46.5L152.447 45ZM199.212 126L196.614 127.5L199.212 126ZM218.655 171.136L221.639 171.449L221.639 171.449L218.655 171.136ZM206.453 192.271L204.69 189.843L204.69 189.843L206.453 192.271ZM15.3016 192.271L17.065 189.843L17.065 189.843L15.3016 192.271ZM3.09952 171.136L0.115949 171.449L0.115949 171.449L3.09952 171.136ZM22.5429 126L25.1409 127.5L22.5429 126ZM107.567 46.32L107.006 43.373L106.993 43.3755L106.979 43.3783L107.567 46.32ZM114.707 46.66L113.883 49.5446L113.924 49.5562L113.965 49.5667L114.707 46.66ZM125.587 56.35L128.486 55.577L128.447 55.4311L128.394 55.2898L125.587 56.35ZM125.247 66.89L128.213 67.3462L128.218 67.3081L128.223 67.2699L125.247 66.89ZM121.337 92.22L118.373 91.762L118.372 91.7638L121.337 92.22ZM115.387 124.18L116.569 126.937L116.991 126.757L117.34 126.458L115.387 124.18ZM107.227 124.35L107.374 121.354L107.301 121.35H107.227V124.35ZM105.697 124.18L107.819 122.059L107.558 121.798L107.241 121.608L105.697 124.18ZM104.167 120.27L101.208 120.763L101.216 120.811L101.226 120.858L104.167 120.27ZM99.7475 92.22L96.7818 92.6726L96.7835 92.6837L99.7475 92.22ZM95.1575 57.71L98.1226 58.1662L98.1575 57.9394V57.71H95.1575ZM95.4975 56.35L98.3435 57.2987L98.3537 57.268L98.3633 57.237L95.4975 56.35ZM105.867 46.83L106.707 49.71L106.847 49.6693L106.982 49.6154L105.867 46.83ZM107.737 135.4L107.05 132.48L107.03 132.485L107.01 132.49L107.737 135.4ZM114.367 135.74L113.578 138.634L113.609 138.643L113.64 138.65L114.367 135.74ZM124.737 144.92L121.948 146.023L122.038 146.252L122.165 146.463L124.737 144.92ZM125.417 146.79L122.458 147.283L122.481 147.416L122.515 147.547L125.417 146.79ZM125.417 154.44L122.523 153.651L122.519 153.667L122.515 153.683L125.417 154.44ZM115.897 164.98L114.872 162.161L114.827 162.177L114.783 162.195L115.897 164.98ZM114.367 165.49L113.64 162.58L113.625 162.583L113.61 162.587L114.367 165.49ZM106.717 165.49L107.507 162.596L107.491 162.591L107.475 162.587L106.717 165.49ZM96.1775 155.97L98.9968 154.945L98.9806 154.9L98.9629 154.856L96.1775 155.97ZM95.6675 154.44L98.5779 153.712L98.5701 153.681L98.5617 153.651L95.6675 154.44ZM95.6675 146.79L92.7688 146.017L92.7667 146.025L92.7646 146.033L95.6675 146.79ZM100.767 138.8L102.602 141.174L102.639 141.145L102.675 141.116L100.767 138.8ZM69.3082 45L71.9063 46.5C78.7566 34.6349 83.793 25.9177 88.2182 19.6542C92.6524 13.378 96.1981 9.98047 99.8956 8.33427L98.6754 5.59363L97.4551 2.853C92.2477 5.1715 87.9306 9.66323 83.3179 16.1921C78.6961 22.7337 73.5013 31.7373 66.7102 43.5L69.3082 45ZM98.6754 5.59363L99.8956 8.33427C106.886 5.22191 114.869 5.22191 121.859 8.33427L123.08 5.59363L124.3 2.853C115.756 -0.950999 105.999 -0.950999 97.4551 2.853L98.6754 5.59363ZM123.08 5.59363L121.859 8.33427C125.557 9.98047 129.102 13.378 133.537 19.6542C137.962 25.9177 142.998 34.6349 149.849 46.5L152.447 45L155.045 43.5C148.254 31.7373 143.059 22.7337 138.437 16.1921C133.824 9.66323 129.507 5.1715 124.3 2.853L123.08 5.59363ZM152.447 45L149.849 46.5L196.614 127.5L199.212 126L201.81 124.5L155.045 43.5L152.447 45ZM199.212 126L196.614 127.5C203.464 139.365 208.495 148.085 211.707 155.049C214.925 162.028 216.095 166.797 215.672 170.822L218.655 171.136L221.639 171.449C222.235 165.78 220.503 159.796 217.156 152.537C213.801 145.263 208.601 136.263 201.81 124.5L199.212 126ZM218.655 171.136L215.672 170.822C214.872 178.432 210.881 185.346 204.69 189.843L206.453 192.271L208.217 194.698C215.783 189.2 220.661 180.751 221.639 171.449L218.655 171.136ZM206.453 192.271L204.69 189.843C201.416 192.222 196.7 193.594 189.048 194.296C181.411 194.997 171.343 195 157.643 195V198V201C171.225 201 181.62 201.003 189.596 200.271C197.557 199.541 203.605 198.048 208.217 194.698L206.453 192.271ZM157.643 198V195H64.1121V198V201H157.643V198ZM64.1121 198V195C50.4114 195 40.3439 194.997 32.707 194.296C25.0546 193.594 20.3393 192.222 17.065 189.843L15.3016 192.271L13.5383 194.698C18.1499 198.048 24.1984 199.541 32.1589 200.271C40.135 201.003 50.5297 201 64.1121 201V198ZM15.3016 192.271L17.065 189.843C10.8743 185.346 6.88294 178.432 6.08308 170.822L3.09952 171.136L0.115949 171.449C1.09355 180.751 5.97194 189.2 13.5383 194.698L15.3016 192.271ZM3.09952 171.136L6.08308 170.822C5.66002 166.797 6.82955 162.028 10.0478 155.049C13.2595 148.085 18.2906 139.365 25.1409 127.5L22.5429 126L19.9448 124.5C13.1536 136.263 7.95363 145.263 4.59929 152.537C1.25151 159.796 -0.479887 165.78 0.115949 171.449L3.09952 171.136ZM22.5429 126L25.1409 127.5L71.9063 46.5L69.3082 45L66.7102 43.5L19.9448 124.5L22.5429 126ZM107.567 46.32L108.129 49.267C110.038 48.9033 111.944 48.9904 113.883 49.5446L114.707 46.66L115.532 43.7754C112.711 42.9696 109.857 42.83 107.006 43.373L107.567 46.32ZM114.707 46.66L113.965 49.5667C118.353 50.6871 121.204 53.2347 122.781 57.4102L125.587 56.35L128.394 55.2898C126.118 49.2653 121.715 45.3529 115.45 43.7532L114.707 46.66ZM125.587 56.35L122.689 57.123C122.797 57.5298 122.899 58.4687 122.844 60.1633C122.792 61.7898 122.605 63.8973 122.272 66.5101L125.247 66.89L128.223 67.2699C128.57 64.556 128.78 62.2435 128.841 60.3567C128.9 58.5379 128.831 56.8702 128.486 55.577L125.587 56.35ZM125.247 66.89L122.282 66.4338C121.829 69.3794 120.526 77.8216 118.373 91.762L121.337 92.22L124.302 92.678C126.456 78.7384 127.759 70.294 128.213 67.3462L125.247 66.89ZM121.337 92.22L118.372 91.7638C116.787 102.069 115.503 109.852 114.521 115.131C114.028 117.777 113.619 119.752 113.292 121.086C113.127 121.76 112.997 122.212 112.904 122.482C112.856 122.621 112.838 122.652 112.855 122.618C112.864 122.599 112.901 122.526 112.968 122.424C113.026 122.338 113.175 122.125 113.435 121.902L115.387 124.18L117.34 126.458C117.882 125.993 118.156 125.436 118.245 125.253C118.38 124.978 118.489 124.691 118.578 124.433C118.757 123.91 118.938 123.256 119.119 122.514C119.487 121.015 119.92 118.91 120.419 116.229C121.42 110.855 122.715 102.998 124.303 92.6762L121.337 92.22ZM115.387 124.18L114.206 121.423C114.432 121.325 114.481 121.357 114.095 121.401C113.781 121.436 113.321 121.465 112.69 121.478C111.431 121.504 109.669 121.466 107.374 121.354L107.227 124.35L107.081 127.346C109.433 127.461 111.354 127.507 112.815 127.477C113.543 127.462 114.203 127.427 114.768 127.363C115.26 127.307 115.946 127.205 116.569 126.937L115.387 124.18ZM107.227 124.35V121.35C106.815 121.35 106.589 121.336 106.496 121.326C106.445 121.32 106.513 121.324 106.646 121.36C106.715 121.379 106.854 121.42 107.027 121.501C107.184 121.575 107.5 121.739 107.819 122.059L105.697 124.18L103.576 126.301C104.191 126.916 104.901 127.103 105.067 127.149C105.356 127.227 105.63 127.267 105.834 127.289C106.251 127.336 106.733 127.35 107.227 127.35V124.35ZM105.697 124.18L107.241 121.608C107.629 121.841 107.79 122.096 107.792 122.1C107.808 122.124 107.765 122.061 107.684 121.854C107.52 121.437 107.321 120.738 107.109 119.682L104.167 120.27L101.226 120.858C101.468 122.068 101.749 123.154 102.096 124.041C102.373 124.747 102.94 126.024 104.154 126.752L105.697 124.18ZM104.167 120.27L107.127 119.777C106.79 117.756 105.32 108.428 102.711 91.7562L99.7475 92.22L96.7835 92.6837C99.3884 109.332 100.865 118.704 101.208 120.763L104.167 120.27ZM99.7475 92.22L102.713 91.7673C101.071 81.0063 99.8699 72.7697 99.1088 67.047C98.7278 64.1826 98.46 61.9705 98.3018 60.3958C98.2225 59.6061 98.1735 59.0038 98.1505 58.5727C98.1226 58.0491 98.1478 58.0022 98.1226 58.1662L95.1575 57.71L92.1923 57.2538C92.1104 57.7862 92.1339 58.421 92.1591 58.8926C92.1892 59.4567 92.2482 60.163 92.3318 60.9954C92.4995 62.6649 92.7771 64.9507 93.1611 67.838C93.93 73.6186 95.1376 81.9003 96.7818 92.6726L99.7475 92.22ZM95.1575 57.71H98.1575C98.1575 57.8028 98.1519 57.873 98.1479 57.9129C98.1437 57.9545 98.1394 57.9815 98.1379 57.9907C98.1353 58.0065 98.1376 57.9887 98.1529 57.9276C98.1839 57.8035 98.2431 57.5998 98.3435 57.2987L95.4975 56.35L92.6514 55.4013C92.5251 55.7802 92.4144 56.1431 92.332 56.4724C92.2648 56.7414 92.1575 57.2093 92.1575 57.71H95.1575ZM95.4975 56.35L98.3633 57.237C99.4939 53.5843 102.079 51.0599 106.707 49.71L105.867 46.83L105.027 43.95C98.7757 45.7734 94.4477 49.5957 92.6316 55.4629L95.4975 56.35ZM105.867 46.83L106.982 49.6154C107.388 49.453 107.779 49.3372 108.156 49.2617L107.567 46.32L106.979 43.3783C106.223 43.5295 105.481 43.7536 104.753 44.0446L105.867 46.83ZM107.737 135.4L108.425 138.32C109.738 138.011 111.424 138.047 113.578 138.634L114.367 135.74L115.157 132.846C112.324 132.073 109.59 131.882 107.05 132.48L107.737 135.4ZM114.367 135.74L113.64 138.65C117.666 139.657 120.368 142.029 121.948 146.023L124.737 144.92L127.527 143.817C125.253 138.065 121.042 134.316 115.095 132.83L114.367 135.74ZM124.737 144.92L122.165 146.463C122.303 146.694 122.404 146.958 122.458 147.283L125.417 146.79L128.377 146.297C128.204 145.262 127.852 144.28 127.31 143.377L124.737 144.92ZM125.417 146.79L122.515 147.547C123.068 149.669 123.059 151.685 122.523 153.651L125.417 154.44L128.312 155.229C129.136 152.208 129.127 149.124 128.32 146.033L125.417 146.79ZM125.417 154.44L122.515 153.683C121.399 157.959 118.915 160.69 114.872 162.161L115.897 164.98L116.923 167.799C122.853 165.643 126.716 161.347 128.32 155.197L125.417 154.44ZM115.897 164.98L114.783 162.195C114.307 162.385 113.929 162.507 113.64 162.58L114.367 165.49L115.095 168.4C115.713 168.246 116.355 168.028 117.012 167.765L115.897 164.98ZM114.367 165.49L113.61 162.587C111.489 163.141 109.472 163.132 107.507 162.596L106.717 165.49L105.928 168.384C108.949 169.208 112.033 169.199 115.125 168.393L114.367 165.49ZM106.717 165.49L107.475 162.587C103.198 161.471 100.467 158.988 98.9968 154.945L96.1775 155.97L93.3581 156.995C95.5146 162.926 99.8103 166.789 105.96 168.393L106.717 165.49ZM96.1775 155.97L98.9629 154.856C98.7723 154.379 98.6502 154.001 98.5779 153.712L95.6675 154.44L92.757 155.168C92.9114 155.785 93.1293 156.427 93.392 157.084L96.1775 155.97ZM95.6675 154.44L98.5617 153.651C98.0257 151.685 98.0168 149.669 98.5703 147.547L95.6675 146.79L92.7646 146.033C91.9581 149.124 91.9492 152.208 92.7732 155.229L95.6675 154.44ZM95.6675 146.79L98.5662 147.563C99.3241 144.721 100.69 142.651 102.602 141.174L100.767 138.8L98.9331 136.426C95.8584 138.802 93.8242 142.059 92.7688 146.017L95.6675 146.79ZM100.767 138.8L102.675 141.116C104.217 139.846 106.124 138.896 108.465 138.31L107.737 135.4L107.01 132.49C103.911 133.264 101.171 134.581 98.8603 136.484L100.767 138.8Z" fill="#838383" mask="url(#path-1-outside-1_61_5)"/>
</svg>
