<svg width="224" height="203" viewBox="0 0 224 203" fill="none" xmlns="http://www.w3.org/2000/svg">
<g filter="url(#filter0_d_81_14)">
<path d="M70.3083 42C83.9498 18.3722 90.7706 6.55834 99.6754 2.59364C107.443 -0.864545 116.312 -0.864545 124.08 2.59364C132.985 6.55834 139.805 18.3722 153.447 42L200.212 123C213.854 146.628 220.674 158.442 219.655 168.136C218.767 176.592 214.332 184.273 207.453 189.271C199.567 195 185.926 195 158.643 195H65.1122C37.8292 195 24.1877 195 16.3017 189.271C9.42322 184.273 4.98833 176.592 4.0996 168.136C3.0807 158.442 9.90145 146.628 23.5429 123L70.3083 42Z" fill="#FF5B45"/>
<path d="M108.568 43.32C110.948 42.8667 113.328 42.98 115.708 43.66C121.034 45.02 124.661 48.25 126.588 53.35C127.041 55.05 126.928 58.5633 126.248 63.89C125.794 66.8367 124.491 75.28 122.338 89.22C119.164 109.847 117.181 120.5 116.388 121.18C115.594 121.52 112.874 121.577 108.228 121.35C107.321 121.35 106.811 121.293 106.698 121.18C106.131 120.84 105.621 119.537 105.168 117.27C104.828 115.23 103.354 105.88 100.748 89.22C97.4609 67.6867 95.9309 56.1833 96.1575 54.71C96.1575 54.4833 96.2709 54.03 96.4975 53.35C97.9709 48.59 101.428 45.4167 106.868 43.83C107.434 43.6033 108.001 43.4333 108.568 43.32ZM108.738 132.4C110.664 131.947 112.874 132.06 115.368 132.74C120.354 133.987 123.811 137.047 125.738 141.92C126.078 142.487 126.304 143.11 126.418 143.79C127.098 146.397 127.098 148.947 126.418 151.44C125.058 156.653 121.884 160.167 116.898 161.98C116.331 162.207 115.821 162.377 115.368 162.49C112.761 163.17 110.211 163.17 107.718 162.49C102.504 161.13 98.9909 157.957 97.1775 152.97C96.9509 152.403 96.7809 151.893 96.6675 151.44C95.9875 148.947 95.9875 146.397 96.6675 143.79C97.5742 140.39 99.2742 137.727 101.768 135.8C103.694 134.213 106.018 133.08 108.738 132.4Z" fill="white"/>
</g>
<defs>
<filter id="filter0_d_81_14" x="0" y="0" width="223.755" height="203" filterUnits="userSpaceOnUse" color-interpolation-filters="sRGB">
<feFlood flood-opacity="0" result="BackgroundImageFix"/>
<feColorMatrix in="SourceAlpha" type="matrix" values="0 0 0 0 0 0 0 0 0 0 0 0 0 0 0 0 0 0 127 0" result="hardAlpha"/>
<feOffset dy="4"/>
<feGaussianBlur stdDeviation="2"/>
<feComposite in2="hardAlpha" operator="out"/>
<feColorMatrix type="matrix" values="0 0 0 0 0 0 0 0 0 0 0 0 0 0 0 0 0 0 0.25 0"/>
<feBlend mode="normal" in2="BackgroundImageFix" result="effect1_dropShadow_81_14"/>
<feBlend mode="normal" in="SourceGraphic" in2="effect1_dropShadow_81_14" result="shape"/>
</filter>
</defs>
</svg>
