<svg width="439" height="439" viewBox="0 0 439 439" fill="none" xmlns="http://www.w3.org/2000/svg">
<g filter="url(#filter0_f_12_97)">
<path fill-rule="evenodd" clip-rule="evenodd" d="M372.6 219.1C372.6 134.324 303.876 65.6001 219.1 65.6001L219.1 372.6C303.876 372.6 372.6 303.876 372.6 219.1Z" fill="#838383"/>
<path d="M219.1 65.6001C134.324 65.6001 65.6001 134.324 65.6001 219.1C65.6001 303.876 134.324 372.6 219.1 372.6L219.1 65.6001Z" fill="#FEB563"/>
</g>
<path d="M219.6 168.6C191.986 168.6 169.6 190.986 169.6 218.6C169.6 246.214 191.986 268.6 219.6 268.6V168.6Z" fill="#FEB563"/>
<path d="M219.6 168.6C247.214 168.6 269.6 190.986 269.6 218.6C269.6 246.214 247.214 268.6 219.6 268.6V168.6Z" fill="#838383"/>
<path fill-rule="evenodd" clip-rule="evenodd" d="M369.6 218.6C369.6 135.757 302.443 68.6001 219.6 68.6001V118.6C274.829 118.6 319.6 163.372 319.6 218.6C319.6 273.829 274.829 318.6 219.6 318.6V368.6C302.443 368.6 369.6 301.443 369.6 218.6ZM219.6 268.6C247.214 268.6 269.6 246.214 269.6 218.6C269.6 190.986 247.214 168.6 219.6 168.6V268.6Z" fill="#838383"/>
<path d="M219.6 118.6V168.6C247.214 168.6 269.6 190.986 269.6 218.6C269.6 246.214 247.214 268.6 219.6 268.6V318.6C274.829 318.6 319.6 273.829 319.6 218.6C319.6 163.372 274.829 118.6 219.6 118.6Z" fill="url(#paint0_linear_12_97)"/>
<path fill-rule="evenodd" clip-rule="evenodd" d="M69.6001 218.6C69.6001 135.757 136.757 68.6001 219.6 68.6001V118.6C164.372 118.6 119.6 163.372 119.6 218.6C119.6 273.829 164.372 318.6 219.6 318.6V368.6C136.757 368.6 69.6001 301.443 69.6001 218.6ZM219.6 268.6V168.6C191.986 168.6 169.6 190.986 169.6 218.6C169.6 246.214 191.986 268.6 219.6 268.6Z" fill="#FEB563"/>
<path d="M219.6 168.6V118.6C164.372 118.6 119.6 163.372 119.6 218.6C119.6 273.829 164.372 318.6 219.6 318.6V268.6C191.986 268.6 169.6 246.214 169.6 218.6C169.6 190.986 191.986 168.6 219.6 168.6Z" fill="url(#paint1_linear_12_97)"/>
<path d="M219.6 168.6C191.986 168.6 169.6 190.986 169.6 218.6C169.6 246.214 191.986 268.6 219.6 268.6V168.6Z" fill="#FEB563"/>
<path d="M219.6 168.6C247.214 168.6 269.6 190.986 269.6 218.6C269.6 246.214 247.214 268.6 219.6 268.6V168.6Z" fill="#838383"/>
<path fill-rule="evenodd" clip-rule="evenodd" d="M369.6 218.6C369.6 135.757 302.443 68.6001 219.6 68.6001V118.6C274.829 118.6 319.6 163.372 319.6 218.6C319.6 273.829 274.829 318.6 219.6 318.6V368.6C302.443 368.6 369.6 301.443 369.6 218.6ZM219.6 268.6C247.214 268.6 269.6 246.214 269.6 218.6C269.6 190.986 247.214 168.6 219.6 168.6V268.6Z" fill="#838383"/>
<path fill-rule="evenodd" clip-rule="evenodd" d="M69.6001 218.6C69.6001 135.757 136.757 68.6001 219.6 68.6001V118.6C164.372 118.6 119.6 163.372 119.6 218.6C119.6 273.829 164.372 318.6 219.6 318.6V368.6C136.757 368.6 69.6001 301.443 69.6001 218.6ZM219.6 268.6V168.6C191.986 168.6 169.6 190.986 169.6 218.6C169.6 246.214 191.986 268.6 219.6 268.6Z" fill="#FEB563"/>
<g filter="url(#filter1_d_12_97)">
<path d="M219.6 168.6C191.986 168.6 169.6 190.986 169.6 218.6C169.6 246.214 191.986 268.6 219.6 268.6V168.6Z" fill="#FEB563"/>
<path d="M219.6 168.6C247.214 168.6 269.6 190.986 269.6 218.6C269.6 246.214 247.214 268.6 219.6 268.6V168.6Z" fill="#838383"/>
<path d="M219.6 168.6C191.986 168.6 169.6 190.986 169.6 218.6C169.6 246.214 191.986 268.6 219.6 268.6V168.6Z" fill="#FEB563"/>
<path d="M219.6 168.6C247.214 168.6 269.6 190.986 269.6 218.6C269.6 246.214 247.214 268.6 219.6 268.6V168.6Z" fill="#838383"/>
</g>
<g style="mix-blend-mode:hard-light">
<path d="M169.6 218.6C169.6 190.986 191.986 168.6 219.6 168.6C247.214 168.6 269.6 190.986 269.6 218.6C269.6 246.214 247.214 268.6 219.6 268.6C191.986 268.6 169.6 246.214 169.6 218.6Z" fill="url(#paint2_radial_12_97)"/>
</g>
<mask id="mask0_12_97" style="mask-type:alpha" maskUnits="userSpaceOnUse" x="69" y="68" width="301" height="301">
<path fill-rule="evenodd" clip-rule="evenodd" d="M219.6 368.6C302.443 368.6 369.6 301.443 369.6 218.6C369.6 135.757 302.443 68.6001 219.6 68.6001C136.757 68.6001 69.6001 135.757 69.6001 218.6C69.6001 301.443 136.757 368.6 219.6 368.6ZM219.6 318.6C274.829 318.6 319.6 273.829 319.6 218.6C319.6 163.372 274.829 118.6 219.6 118.6C164.372 118.6 119.6 163.372 119.6 218.6C119.6 273.829 164.372 318.6 219.6 318.6Z" fill="#D9D9D9"/>
</mask>
<g mask="url(#mask0_12_97)">
<path fill-rule="evenodd" clip-rule="evenodd" d="M69.6001 218.6C69.6001 135.757 136.757 68.6001 219.6 68.6001V118.6C164.372 118.6 119.6 163.372 119.6 218.6C119.6 273.829 164.372 318.6 219.6 318.6V368.6C136.757 368.6 69.6001 301.443 69.6001 218.6Z" fill="#FEB563"/>
<path fill-rule="evenodd" clip-rule="evenodd" d="M69.6001 218.6C69.6001 135.757 136.757 68.6001 219.6 68.6001V118.6C164.372 118.6 119.6 163.372 119.6 218.6C119.6 273.829 164.372 318.6 219.6 318.6V368.6C136.757 368.6 69.6001 301.443 69.6001 218.6Z" fill="#FEB563"/>
<g style="mix-blend-mode:hard-light">
<path d="M69.6001 218.6C69.6001 135.757 136.757 68.6001 219.6 68.6001C302.443 68.6001 369.6 135.757 369.6 218.6C369.6 301.443 302.443 368.6 219.6 368.6C136.757 368.6 69.6001 301.443 69.6001 218.6Z" fill="url(#paint3_radial_12_97)"/>
</g>
</g>
<defs>
<filter id="filter0_f_12_97" x="9.91821e-05" y="9.91821e-05" width="438.2" height="438.2" filterUnits="userSpaceOnUse" color-interpolation-filters="sRGB">
<feFlood flood-opacity="0" result="BackgroundImageFix"/>
<feBlend mode="normal" in="SourceGraphic" in2="BackgroundImageFix" result="shape"/>
<feGaussianBlur stdDeviation="32.8" result="effect1_foregroundBlur_12_97"/>
</filter>
<filter id="filter1_d_12_97" x="152.3" y="164.3" width="134.6" height="134.6" filterUnits="userSpaceOnUse" color-interpolation-filters="sRGB">
<feFlood flood-opacity="0" result="BackgroundImageFix"/>
<feColorMatrix in="SourceAlpha" type="matrix" values="0 0 0 0 0 0 0 0 0 0 0 0 0 0 0 0 0 0 127 0" result="hardAlpha"/>
<feOffset dy="13"/>
<feGaussianBlur stdDeviation="8.65"/>
<feComposite in2="hardAlpha" operator="out"/>
<feColorMatrix type="matrix" values="0 0 0 0 0.197904 0 0 0 0 0 0 0 0 0 0 0 0 0 0.78 0"/>
<feBlend mode="normal" in2="BackgroundImageFix" result="effect1_dropShadow_12_97"/>
<feBlend mode="normal" in="SourceGraphic" in2="effect1_dropShadow_12_97" result="shape"/>
</filter>
<linearGradient id="paint0_linear_12_97" x1="219.6" y1="68.6001" x2="219.6" y2="368.6" gradientUnits="userSpaceOnUse">
<stop stop-color="#540C60"/>
<stop offset="0.408654" stop-color="#FEB563"/>
<stop offset="1" stop-color="#FFF3E6"/>
</linearGradient>
<linearGradient id="paint1_linear_12_97" x1="219.6" y1="68.6001" x2="219.6" y2="368.6" gradientUnits="userSpaceOnUse">
<stop offset="0.0865385" stop-color="#1D1D1D"/>
<stop offset="0.596154" stop-color="#838383"/>
<stop offset="1" stop-color="#EAEAEA"/>
</linearGradient>
<radialGradient id="paint2_radial_12_97" cx="0" cy="0" r="1" gradientUnits="userSpaceOnUse" gradientTransform="translate(218.1 209.1) rotate(90.6031) scale(47.5026)">
<stop stop-color="#D9D9D9"/>
<stop offset="1" stop-color="#4C4B4B"/>
</radialGradient>
<radialGradient id="paint3_radial_12_97" cx="0" cy="0" r="1" gradientUnits="userSpaceOnUse" gradientTransform="translate(215.1 190.1) rotate(90.6031) scale(142.508)">
<stop stop-color="#D9D9D9"/>
<stop offset="1" stop-color="#4C4B4B"/>
</radialGradient>
</defs>
</svg>
