<svg width="300" height="300" viewBox="0 0 300 300" fill="none" xmlns="http://www.w3.org/2000/svg">
<path d="M0 150C0 67.1573 67.1573 0 150 0V150H0Z" fill="#FEB563"/>
<path d="M0 150H150V300C67.1573 300 0 232.843 0 150Z" fill="#FEB563"/>
<path d="M150 150L150 0C232.843 0 300 67.1573 300 150H150Z" fill="#838383"/>
<path d="M150 300C232.843 300 300 232.843 300 150H150V300Z" fill="#838383"/>
<path d="M50 150C50 94.7715 94.7715 50 150 50V150H50Z" fill="#838383"/>
<path d="M50 150H150V250C94.7715 250 50 205.228 50 150Z" fill="#838383"/>
<path d="M150 150L150 50C205.228 50 250 94.7715 250 150H150Z" fill="#FEB563"/>
<path d="M150 250C205.228 250 250 205.228 250 150H150V250Z" fill="#FEB563"/>
<path d="M100 150C100 122.386 122.386 100 150 100V150H100Z" fill="#FEB563"/>
<path d="M100 150H150V200C122.386 200 100 177.614 100 150Z" fill="#FEB563"/>
<path d="M150 150L150 100C177.614 100 200 122.386 200 150H150Z" fill="#838383"/>
<path d="M150 200C177.614 200 200 177.614 200 150H150V200Z" fill="#838383"/>
</svg>
