<svg width="300" height="298" viewBox="0 0 300 298" fill="none" xmlns="http://www.w3.org/2000/svg">
<path d="M150 0C67.1573 0 0 66.7096 0 149C0 231.29 67.1573 298 150 298V0Z" fill="#FEB563"/>
<path d="M150 0C232.843 0 300 66.7096 300 149C300 231.29 232.843 298 150 298V0Z" fill="#838383"/>
<path d="M150 248.333C205.228 248.333 250 203.86 250 149C250 94.1397 205.228 49.6667 150 49.6667V248.333Z" fill="#FEB563"/>
<path d="M150 248.333C94.7715 248.333 50 203.86 50 149C50 94.1397 94.7715 49.6667 150 49.6667V248.333Z" fill="#838383"/>
<path d="M150 99.3333C122.386 99.3333 100 121.57 100 149C100 176.43 122.386 198.667 150 198.667V99.3333Z" fill="#FEB563"/>
<path d="M150 99.3333C177.614 99.3333 200 121.57 200 149C200 176.43 177.614 198.667 150 198.667V99.3333Z" fill="#838383"/>
</svg>
