<svg width="203" height="203" viewBox="0 0 203 203" fill="none" xmlns="http://www.w3.org/2000/svg">
<g filter="url(#filter0_d_213_35)">
<path d="M4 97.5C4 43.6522 47.6522 0 101.5 0C155.348 0 199 43.6522 199 97.5C199 151.348 155.348 195 101.5 195C47.6522 195 4 151.348 4 97.5Z" fill="#5FDC56"/>
<path d="M144.983 60.9961C148.299 57.6732 153.681 57.6676 157.004 60.9834C160.327 64.2993 160.332 69.6809 157.017 73.0039L96.1494 134.004C94.5548 135.602 92.3893 136.5 90.1318 136.5C87.8744 136.5 85.7097 135.602 84.1152 134.004L45.9834 95.7891C42.6675 92.466 42.673 87.0834 45.9961 83.7676C49.3191 80.4518 54.7008 80.4582 58.0166 83.7812L83.3363 109.156C85.7144 111.539 86.9035 112.731 88.2753 113.177C89.4818 113.57 90.7818 113.57 91.9884 113.177C93.3601 112.731 94.5492 111.539 96.9274 109.156L144.983 60.9961Z" fill="white"/>
</g>
<defs>
<filter id="filter0_d_213_35" x="0" y="0" width="203" height="203" filterUnits="userSpaceOnUse" color-interpolation-filters="sRGB">
<feFlood flood-opacity="0" result="BackgroundImageFix"/>
<feColorMatrix in="SourceAlpha" type="matrix" values="0 0 0 0 0 0 0 0 0 0 0 0 0 0 0 0 0 0 127 0" result="hardAlpha"/>
<feOffset dy="4"/>
<feGaussianBlur stdDeviation="2"/>
<feComposite in2="hardAlpha" operator="out"/>
<feColorMatrix type="matrix" values="0 0 0 0 0 0 0 0 0 0 0 0 0 0 0 0 0 0 0.25 0"/>
<feBlend mode="normal" in2="BackgroundImageFix" result="effect1_dropShadow_213_35"/>
<feBlend mode="normal" in="SourceGraphic" in2="effect1_dropShadow_213_35" result="shape"/>
</filter>
</defs>
</svg>
