<svg width="195" height="195" viewBox="0 0 195 195" fill="none" xmlns="http://www.w3.org/2000/svg">
<g filter="url(#filter0_ii_61_6)">
<path d="M0 97.5C0 43.6522 43.6522 0 97.5 0C151.348 0 195 43.6522 195 97.5C195 151.348 151.348 195 97.5 195C43.6522 195 0 151.348 0 97.5Z" fill="#5FDC56"/>
</g>
<path d="M97.5 1.5C150.519 1.5 193.5 44.4807 193.5 97.5C193.5 150.519 150.519 193.5 97.5 193.5C44.4807 193.5 1.5 150.519 1.5 97.5C1.5 44.4807 44.4807 1.5 97.5 1.5Z" stroke="#838383" stroke-width="3"/>
<path d="M140.983 60.9961C144.299 57.6732 149.681 57.6676 153.004 60.9834C156.327 64.2993 156.332 69.6809 153.017 73.0039L92.1494 134.004C90.5548 135.602 88.3893 136.5 86.1318 136.5C83.8744 136.5 81.7097 135.602 80.1152 134.004L41.9834 95.7891C38.6675 92.466 38.673 87.0834 41.9961 83.7676C45.3191 80.4518 50.7008 80.4582 54.0166 83.7813L79.3363 109.156C81.7144 111.539 82.9035 112.731 84.2753 113.177C85.4818 113.57 86.7818 113.57 87.9884 113.177C89.3601 112.731 90.5492 111.539 92.9273 109.156L140.983 60.9961Z" fill="white" stroke="#838383" stroke-width="3" stroke-linecap="round" stroke-linejoin="round"/>
<defs>
<filter id="filter0_ii_61_6" x="-5" y="-5" width="204" height="204" filterUnits="userSpaceOnUse" color-interpolation-filters="sRGB">
<feFlood flood-opacity="0" result="BackgroundImageFix"/>
<feBlend mode="normal" in="SourceGraphic" in2="BackgroundImageFix" result="shape"/>
<feColorMatrix in="SourceAlpha" type="matrix" values="0 0 0 0 0 0 0 0 0 0 0 0 0 0 0 0 0 0 127 0" result="hardAlpha"/>
<feOffset dx="-5" dy="-5"/>
<feGaussianBlur stdDeviation="4.1"/>
<feComposite in2="hardAlpha" operator="arithmetic" k2="-1" k3="1"/>
<feColorMatrix type="matrix" values="0 0 0 0 0.361572 0 0 0 0 0 0 0 0 0 0.0060262 0 0 0 0.32 0"/>
<feBlend mode="normal" in2="shape" result="effect1_innerShadow_61_6"/>
<feColorMatrix in="SourceAlpha" type="matrix" values="0 0 0 0 0 0 0 0 0 0 0 0 0 0 0 0 0 0 127 0" result="hardAlpha"/>
<feOffset dx="4" dy="4"/>
<feGaussianBlur stdDeviation="3.55"/>
<feComposite in2="hardAlpha" operator="arithmetic" k2="-1" k3="1"/>
<feColorMatrix type="matrix" values="0 0 0 0 1 0 0 0 0 1 0 0 0 0 1 0 0 0 0.79 0"/>
<feBlend mode="normal" in2="effect1_innerShadow_61_6" result="effect2_innerShadow_61_6"/>
</filter>
</defs>
</svg>
