<svg width="198" height="198" viewBox="0 0 198 198" fill="none" xmlns="http://www.w3.org/2000/svg">
<path d="M1.5 99C1.5 45.1522 45.1522 1.5 99 1.5C152.848 1.5 196.5 45.1522 196.5 99C196.5 152.848 152.848 196.5 99 196.5C45.1522 196.5 1.5 152.848 1.5 99Z" fill="#5FDC56"/>
<path d="M142.483 62.4961C145.799 59.1732 151.181 59.1676 154.504 62.4834C157.827 65.7993 157.832 71.1809 154.517 74.5039L93.6494 135.504C92.0548 137.102 89.8893 138 87.6318 138C85.3744 138 83.2097 137.102 81.6152 135.504L43.4834 97.2891C40.1675 93.966 40.173 88.5834 43.4961 85.2676C46.8191 81.9518 52.2008 81.9582 55.5166 85.2812L80.8363 110.656C83.2144 113.039 84.4035 114.231 85.7753 114.677C86.9818 115.07 88.2818 115.07 89.4884 114.677C90.8601 114.231 92.0492 113.039 94.4274 110.656L142.483 62.4961Z" fill="white"/>
<path d="M142.483 62.4961L141.422 61.4366L141.422 61.4366L142.483 62.4961ZM154.504 62.4834L155.563 61.4216L155.563 61.4216L154.504 62.4834ZM154.517 74.5039L153.455 73.4444V73.4444L154.517 74.5039ZM93.6494 135.504L94.7112 136.563V136.563L93.6494 135.504ZM87.6318 138L87.6317 139.5H87.6318V138ZM81.6152 135.504L80.5534 136.563V136.563L81.6152 135.504ZM43.4834 97.2891L44.5452 96.2296H44.5452L43.4834 97.2891ZM43.4961 85.2676L42.4366 84.2057L42.4366 84.2058L43.4961 85.2676ZM55.5166 85.2812L54.4548 86.3408L54.4548 86.3408L55.5166 85.2812ZM80.8363 110.656L79.7745 111.715V111.715L80.8363 110.656ZM85.7753 114.677L86.2394 113.251V113.251L85.7753 114.677ZM89.4884 114.677L89.9525 116.103V116.103L89.4884 114.677ZM94.4274 110.656L93.3656 109.596V109.596L94.4274 110.656ZM1.5 99H3C3 45.9807 45.9807 3 99 3V1.5V0C44.3238 0 0 44.3238 0 99H1.5ZM99 1.5V3C152.019 3 195 45.9807 195 99H196.5H198C198 44.3238 153.676 0 99 0V1.5ZM196.5 99H195C195 152.019 152.019 195 99 195V196.5V198C153.676 198 198 153.676 198 99H196.5ZM99 196.5V195C45.9807 195 3 152.019 3 99H1.5H0C0 153.676 44.3238 198 99 198V196.5ZM142.483 62.4961L143.545 63.5556C146.276 60.8192 150.708 60.8145 153.444 63.5452L154.504 62.4834L155.563 61.4216C151.654 57.5207 145.323 57.5272 141.422 61.4366L142.483 62.4961ZM154.504 62.4834L153.444 63.5452C156.181 66.2758 156.185 70.7078 153.455 73.4444L154.517 74.5039L155.578 75.5634C159.479 71.654 159.473 65.3227 155.563 61.4216L154.504 62.4834ZM154.517 74.5039L153.455 73.4444L92.5876 134.444L93.6494 135.504L94.7112 136.563L155.578 75.5634L154.517 74.5039ZM93.6494 135.504L92.5876 134.444C91.2745 135.76 89.4911 136.5 87.6318 136.5V138V139.5C90.2876 139.5 92.8351 138.444 94.7112 136.563L93.6494 135.504ZM87.6318 138L87.6319 136.5C85.7728 136.5 83.9901 135.76 82.677 134.444L81.6152 135.504L80.5534 136.563C82.4293 138.443 84.976 139.5 87.6317 139.5L87.6318 138ZM81.6152 135.504L82.677 134.444L44.5452 96.2296L43.4834 97.2891L42.4216 98.3486L80.5534 136.563L81.6152 135.504ZM43.4834 97.2891L44.5452 96.2296C41.8144 93.4928 41.819 89.06 44.5556 86.3294L43.4961 85.2676L42.4366 84.2058C38.527 88.1068 38.5206 94.4392 42.4216 98.3486L43.4834 97.2891ZM43.4961 85.2676L44.5555 86.3294C47.2921 83.5989 51.724 83.604 54.4548 86.3408L55.5166 85.2812L56.5784 84.2217C52.6775 80.3124 46.3462 80.3048 42.4366 84.2057L43.4961 85.2676ZM55.5166 85.2812L54.4548 86.3408L79.7745 111.715L80.8363 110.656L81.8981 109.596L56.5784 84.2217L55.5166 85.2812ZM80.8363 110.656L79.7745 111.715C80.9461 112.889 81.8877 113.835 82.7113 114.535C83.5482 115.247 84.3615 115.794 85.3111 116.103L85.7753 114.677L86.2394 113.251C85.8173 113.113 85.3502 112.841 84.6551 112.25C83.9466 111.647 83.1047 110.805 81.8981 109.596L80.8363 110.656ZM85.7753 114.677L85.3111 116.103C86.8193 116.594 88.4443 116.594 89.9525 116.103L89.4884 114.677L89.0242 113.251C88.1193 113.545 87.1443 113.545 86.2394 113.251L85.7753 114.677ZM89.4884 114.677L89.9525 116.103C90.9021 115.794 91.7154 115.247 92.5524 114.535C93.3759 113.835 94.3176 112.889 95.4892 111.715L94.4274 110.656L93.3656 109.596C92.159 110.805 91.317 111.647 90.6085 112.25C89.9135 112.841 89.4464 113.113 89.0242 113.251L89.4884 114.677ZM94.4274 110.656L95.4892 111.715L143.545 63.5556L142.483 62.4961L141.422 61.4366L93.3656 109.596L94.4274 110.656Z" fill="#838383"/>
</svg>
