<svg width="265" height="265" viewBox="0 0 265 265" fill="none" xmlns="http://www.w3.org/2000/svg">
<g filter="url(#filter0_f_5_5)">
<path d="M31.4 132.4C31.4 76.6192 76.6192 31.4 132.4 31.4C188.181 31.4 233.4 76.6192 233.4 132.4C233.4 188.181 188.181 233.4 132.4 233.4C76.6192 233.4 31.4 188.181 31.4 132.4Z" fill="#5FDC56" fill-opacity="0.76"/>
</g>
<g filter="url(#filter1_ii_5_5)">
<path d="M34.4 131.9C34.4 78.0522 78.0522 34.4 131.9 34.4C185.748 34.4 229.4 78.0522 229.4 131.9C229.4 185.748 185.748 229.4 131.9 229.4C78.0522 229.4 34.4 185.748 34.4 131.9Z" fill="#5FDC56"/>
</g>
<path d="M175.383 95.3961C178.699 92.0732 184.081 92.0676 187.404 95.3834C190.727 98.6993 190.732 104.081 187.417 107.404L126.549 168.404C124.955 170.002 122.789 170.9 120.532 170.9C118.274 170.9 116.11 170.002 114.515 168.404L76.3834 130.189C73.0675 126.866 73.073 121.483 76.3961 118.168C79.7191 114.852 85.1008 114.858 88.4166 118.181L113.736 143.556C116.114 145.939 117.304 147.131 118.675 147.577C119.882 147.97 121.182 147.97 122.388 147.577C123.76 147.131 124.949 145.939 127.327 143.556L175.383 95.3961Z" fill="white"/>
<defs>
<filter id="filter0_f_5_5" x="-5.72205e-06" y="1.90735e-06" width="264.8" height="264.8" filterUnits="userSpaceOnUse" color-interpolation-filters="sRGB">
<feFlood flood-opacity="0" result="BackgroundImageFix"/>
<feBlend mode="normal" in="SourceGraphic" in2="BackgroundImageFix" result="shape"/>
<feGaussianBlur stdDeviation="15.7" result="effect1_foregroundBlur_5_5"/>
</filter>
<filter id="filter1_ii_5_5" x="29.4" y="29.4" width="204" height="204" filterUnits="userSpaceOnUse" color-interpolation-filters="sRGB">
<feFlood flood-opacity="0" result="BackgroundImageFix"/>
<feBlend mode="normal" in="SourceGraphic" in2="BackgroundImageFix" result="shape"/>
<feColorMatrix in="SourceAlpha" type="matrix" values="0 0 0 0 0 0 0 0 0 0 0 0 0 0 0 0 0 0 127 0" result="hardAlpha"/>
<feOffset dx="-5" dy="-5"/>
<feGaussianBlur stdDeviation="4.1"/>
<feComposite in2="hardAlpha" operator="arithmetic" k2="-1" k3="1"/>
<feColorMatrix type="matrix" values="0 0 0 0 0.361572 0 0 0 0 0 0 0 0 0 0.0060262 0 0 0 0.32 0"/>
<feBlend mode="normal" in2="shape" result="effect1_innerShadow_5_5"/>
<feColorMatrix in="SourceAlpha" type="matrix" values="0 0 0 0 0 0 0 0 0 0 0 0 0 0 0 0 0 0 127 0" result="hardAlpha"/>
<feOffset dx="4" dy="4"/>
<feGaussianBlur stdDeviation="3.55"/>
<feComposite in2="hardAlpha" operator="arithmetic" k2="-1" k3="1"/>
<feColorMatrix type="matrix" values="0 0 0 0 1 0 0 0 0 1 0 0 0 0 1 0 0 0 0.79 0"/>
<feBlend mode="normal" in2="effect1_innerShadow_5_5" result="effect2_innerShadow_5_5"/>
</filter>
</defs>
</svg>
