<svg width="128" height="128" viewBox="0 0 128 128" fill="none" xmlns="http://www.w3.org/2000/svg">
<path d="M46 63.5C46 53.835 53.835 46 63.5 46C73.165 46 81 53.835 81 63.5C81 73.165 73.165 81 63.5 81C53.835 81 46 73.165 46 63.5Z" fill="#838383"/>
<path d="M63.9996 24C88.8317 24 110.692 36.7131 123.421 55.9815C125.773 59.5419 123.027 64 118.76 64C116.679 64 114.777 62.8671 113.651 61.1168C103.155 44.8044 84.8389 34 63.9996 34C43.1606 34.0001 24.8456 44.8044 14.3491 61.1166C13.2228 62.867 11.3211 64 9.2397 64C4.97218 64 2.22622 59.5415 4.57857 55.9809C17.308 36.7129 39.1679 24.0001 63.9996 24Z" fill="#838383"/>
</svg>
