<svg width="300" height="300" viewBox="0 0 300 300" fill="none" xmlns="http://www.w3.org/2000/svg">
<path d="M150 0C67.1573 0 0 67.1573 0 150C0 232.843 67.1573 300 150 300V0Z" fill="#B2B2B2"/>
<path d="M150 0C232.843 0 300 67.1573 300 150C300 232.843 232.843 300 150 300V0Z" fill="#838383"/>
<path d="M150 250C205.228 250 250 205.228 250 150C250 94.7715 205.228 50 150 50V250Z" fill="#B2B2B2"/>
<path d="M150 250C94.7715 250 50 205.228 50 150C50 94.7715 94.7715 50 150 50V250Z" fill="#838383"/>
<path d="M150 100C122.386 100 100 122.386 100 150C100 177.614 122.386 200 150 200V100Z" fill="#B2B2B2"/>
<path d="M150 100C177.614 100 200 122.386 200 150C200 177.614 177.614 200 150 200V100Z" fill="#838383"/>
</svg>
