<svg width="172" height="172" viewBox="0 0 172 172" fill="none" xmlns="http://www.w3.org/2000/svg">
<path d="M73.5391 12.0001C73.5391 5.37268 78.9118 -2.03144e-06 85.5392 -2.03144e-06C92.1666 -2.03144e-06 97.5393 5.37268 97.5393 12.0001L97.5393 54.3391C97.5393 61.0597 97.5393 64.42 98.8472 66.987C99.9977 69.2449 101.833 71.0807 104.091 72.2312C106.658 73.5391 110.019 73.5391 116.739 73.5391H159.078C165.706 73.5391 171.078 78.9118 171.078 85.5392C171.078 92.1666 165.706 97.5393 159.078 97.5393H116.739C110.019 97.5393 106.658 97.5393 104.091 98.8472C101.833 99.9977 99.9977 101.833 98.8472 104.091C97.5393 106.658 97.5393 110.019 97.5393 116.739L97.5393 159.078C97.5393 165.706 92.1666 171.078 85.5392 171.078C78.9118 171.078 73.5391 165.706 73.5391 159.078L73.5391 116.739C73.5391 110.019 73.5391 106.658 72.2312 104.091C71.0807 101.833 69.2449 99.9977 66.987 98.8472C64.4201 97.5393 61.0597 97.5393 54.3391 97.5393L12.0001 97.5393C5.37269 97.5393 1.23317e-05 92.1666 1.23317e-05 85.5392C1.23317e-05 78.9118 5.37269 73.5391 12.0001 73.5391L54.3391 73.5391C61.0598 73.5391 64.4201 73.5391 66.987 72.2312C69.2449 71.0807 71.0807 69.2449 72.2312 66.987C73.5391 64.42 73.5391 61.0597 73.5391 54.3391L73.5391 12.0001Z" fill="black"/>
</svg>
