<svg width="128" height="128" viewBox="0 0 128 128" fill="none" xmlns="http://www.w3.org/2000/svg">
<path fill-rule="evenodd" clip-rule="evenodd" d="M78.0113 0C105.619 0 128 22.3854 128 49.9993C128 77.6131 105.619 99.9985 78.0113 99.9985C50.4034 99.9985 28.0227 77.6131 28.0227 49.9993C28.0227 22.3854 50.4034 0 78.0113 0ZM78.0113 9.99985C55.925 9.99985 38.0204 27.9082 38.0204 49.9993C38.0204 72.0903 55.925 89.9987 78.0113 89.9987C100.098 89.9987 118.002 72.0903 118.002 49.9993C118.002 27.9082 100.098 9.99985 78.0113 9.99985Z" fill="#838383"/>
<path d="M1.46413 126.536C-0.488045 124.583 -0.488045 121.417 1.46413 119.465L42.0806 78.8395C44.0328 76.8869 47.1979 76.8869 49.15 78.8395C51.1022 80.7921 51.1022 83.9579 49.15 85.9105L8.5336 126.536C6.58142 128.488 3.41631 128.488 1.46413 126.536Z" fill="#838383"/>
</svg>
