<svg width="128" height="128" viewBox="0 0 128 128" fill="none" xmlns="http://www.w3.org/2000/svg">
<path d="M97.6469 70.8531C108.831 59.6695 108.83 41.5368 97.6469 30.3532C86.4633 19.1695 68.3306 19.1695 57.147 30.3532C45.9636 41.5368 45.9634 59.6695 57.147 70.8531C68.3306 82.0364 86.4634 82.0364 97.6469 70.8531ZM113.179 86.385C96.0843 103.479 69.8041 105.783 50.2296 93.3024L18.7487 124.783C14.4597 129.072 7.5058 129.072 3.21676 124.783C-1.07225 120.494 -1.07226 113.54 3.21676 109.251L34.6977 77.7705C22.2172 58.196 24.5206 31.9159 41.6151 14.8213C61.3768 -4.94042 93.4172 -4.94042 113.179 14.8213C132.94 34.5829 132.94 66.6234 113.179 86.385Z" fill="#838383"/>
</svg>
