<svg width="128" height="155" viewBox="0 0 128 155" fill="none" xmlns="http://www.w3.org/2000/svg">
<path d="M32.1897 97.8722C35.4877 93.4422 41.7525 92.5246 46.1825 95.8227C50.6125 99.1207 51.5301 105.385 48.2321 109.815L18.0218 150.394C14.7238 154.824 8.45897 155.742 4.02899 152.444C-0.401 149.146 -1.31862 142.881 1.97942 138.451L32.1897 97.8722Z" fill="#838383"/>
<path fill-rule="evenodd" clip-rule="evenodd" d="M70.0078 0C102.04 0 128.008 25.9675 128.008 58C128.008 90.0325 102.04 116 70.0078 116C37.9753 116 12.0078 90.0325 12.0078 58C12.0078 25.9675 37.9753 0 70.0078 0ZM70.0078 15C46.2595 15 27.0078 34.2518 27.0078 58C27.0078 81.7482 46.2595 101 70.0078 101C93.756 101 113.008 81.7482 113.008 58C113.008 34.2518 93.756 15 70.0078 15Z" fill="#838383"/>
</svg>
