<svg width="16" height="16" viewBox="0 0 16 16" fill="none" xmlns="http://www.w3.org/2000/svg">
<path d="M2.09583 6.46011C2.04459 6.41895 2.00266 6.3198 2.00266 6.3198L0.0490135 1.04879C0.0490135 1.04879 0.0326422 1.00942 0.0247446 0.983313C-0.0126801 0.859609 -0.00349841 0.778429 0.0247446 0.652298C0.0710317 0.445585 0.158097 0.330982 0.324903 0.200914C0.428351 0.120249 0.49913 0.0868305 0.625061 0.0504527C0.816543 -0.00486069 0.951982 -0.0278033 1.13533 0.0504527C1.16471 0.0629937 1.20841 0.0872377 1.20841 0.0872377L15.4236 7.24251C15.4236 7.24251 15.5361 7.31136 15.603 7.36288C15.7343 7.46421 15.8222 7.5091 15.9031 7.6638C15.9548 7.76252 15.9802 7.82391 15.9932 7.93463C16.0069 8.05192 16.0013 8.12382 15.9632 8.23555C15.9168 8.37127 15.8532 8.41765 15.753 8.50638C15.6602 8.58862 15.4829 8.67301 15.4829 8.67301L1.22537 15.879C1.22537 15.879 1.10619 15.9422 1.01527 15.9693C0.869169 16.0127 0.772543 16.0077 0.625061 15.9693C0.482912 15.9322 0.408139 15.8825 0.294887 15.7887C0.198807 15.7092 0.130681 15.6567 0.0847763 15.548C0.0388714 15.4392 0.0534609 15.3652 0.0547554 15.2471C0.0556848 15.1623 0.0589942 15.0795 0.0847763 14.9762C0.106042 14.8911 0.162984 14.7656 0.162984 14.7656L2.05115 9.67998C2.05115 9.67998 2.09034 9.61853 2.12585 9.58971C2.15711 9.56434 2.2159 9.53962 2.2159 9.53962L10.9505 8.08499C10.9505 8.08499 10.9805 8.05115 10.9805 8.02491C10.9805 7.9987 10.9505 7.96492 10.9505 7.96492L2.24712 6.52029C2.24712 6.52029 2.14544 6.49996 2.09583 6.46011Z" fill="white"/>
</svg>
