<svg width="219" height="198" viewBox="0 0 219 198" fill="none" xmlns="http://www.w3.org/2000/svg">
<path d="M67.8083 43.5C81.4498 19.8722 88.2705 8.05834 97.1754 4.09364C104.943 0.635455 113.812 0.635455 121.58 4.09364C130.484 8.05834 137.305 19.8722 150.947 43.5L197.712 124.5C211.354 148.128 218.174 159.942 217.155 169.636C216.267 178.092 211.832 185.773 204.953 190.771C197.067 196.5 183.426 196.5 156.143 196.5H62.6121C35.3291 196.5 21.6876 196.5 13.8017 190.771C6.92318 185.773 2.48828 178.092 1.59955 169.636C0.580653 159.942 7.4014 148.128 21.0429 124.5L67.8083 43.5Z" fill="#FFE92C"/>
<path d="M106.067 44.82C108.447 44.3667 110.827 44.48 113.207 45.16C118.534 46.52 122.161 49.75 124.087 54.85C124.541 56.55 124.427 60.0633 123.747 65.39C123.294 68.3367 121.991 76.78 119.837 90.72C116.664 111.347 114.681 122 113.887 122.68C113.094 123.02 110.374 123.077 105.727 122.85C104.821 122.85 104.311 122.793 104.197 122.68C103.631 122.34 103.121 121.037 102.667 118.77C102.327 116.73 100.854 107.38 98.2475 90.72C94.9608 69.1867 93.4308 57.6833 93.6575 56.21C93.6575 55.9833 93.7708 55.53 93.9975 54.85C95.4708 50.09 98.9275 46.9167 104.367 45.33C104.934 45.1033 105.501 44.9333 106.067 44.82ZM106.237 133.9C108.164 133.447 110.374 133.56 112.868 134.24C117.854 135.487 121.311 138.547 123.237 143.42C123.577 143.987 123.804 144.61 123.917 145.29C124.597 147.897 124.597 150.447 123.917 152.94C122.557 158.153 119.384 161.667 114.397 163.48C113.831 163.707 113.321 163.877 112.868 163.99C110.261 164.67 107.711 164.67 105.217 163.99C100.004 162.63 96.4908 159.457 94.6775 154.47C94.4508 153.903 94.2808 153.393 94.1675 152.94C93.4875 150.447 93.4875 147.897 94.1675 145.29C95.0742 141.89 96.7742 139.227 99.2675 137.3C101.194 135.713 103.517 134.58 106.237 133.9Z" fill="white"/>
<path d="M13.8017 190.771L14.6833 189.557V189.557L13.8017 190.771ZM21.0429 124.5L19.7439 123.75V123.75L21.0429 124.5ZM1.59955 169.636L0.107771 169.793L1.59955 169.636ZM197.712 124.5L196.413 125.25L197.712 124.5ZM217.155 169.636L218.647 169.793L217.155 169.636ZM204.953 190.771L204.072 189.557V189.557L204.953 190.771ZM150.947 43.5L149.648 44.25L150.947 43.5ZM121.58 4.09364L122.19 2.72332L121.58 4.09364ZM67.8083 43.5L69.1073 44.25V44.25L67.8083 43.5ZM97.1754 4.09364L96.5653 2.72332L97.1754 4.09364ZM106.067 44.82L105.787 43.3464L105.773 43.3491L106.067 44.82ZM113.207 45.16L112.795 46.6023L112.816 46.6081L112.836 46.6134L113.207 45.16ZM124.087 54.85L125.537 54.4635L125.517 54.3905L125.491 54.3199L124.087 54.85ZM123.747 65.39L125.23 65.6181L125.233 65.5991L125.235 65.5799L123.747 65.39ZM119.837 90.72L118.355 90.491L118.355 90.4919L119.837 90.72ZM113.887 122.68L114.478 124.059L114.689 123.968L114.864 123.819L113.887 122.68ZM105.727 122.85L105.801 121.352L105.764 121.35H105.727V122.85ZM104.197 122.68L105.258 121.619L105.128 121.489L104.969 121.394L104.197 122.68ZM102.667 118.77L101.188 119.017L101.192 119.04L101.197 119.064L102.667 118.77ZM98.2475 90.72L96.7647 90.9463L96.7655 90.9519L98.2475 90.72ZM93.6575 56.21L95.1401 56.4381L95.1575 56.3247V56.21H93.6575ZM93.9975 54.85L95.4205 55.3243L95.4256 55.309L95.4304 55.2935L93.9975 54.85ZM104.367 45.33L104.787 46.77L104.857 46.7497L104.925 46.7227L104.367 45.33ZM106.237 133.9L105.894 132.44L105.884 132.442L105.874 132.445L106.237 133.9ZM112.868 134.24L112.473 135.687L112.488 135.691L112.504 135.695L112.868 134.24ZM123.237 143.42L121.843 143.971L121.888 144.086L121.951 144.192L123.237 143.42ZM123.917 145.29L122.438 145.537L122.449 145.603L122.466 145.669L123.917 145.29ZM123.917 152.94L122.47 152.545L122.468 152.553L122.466 152.561L123.917 152.94ZM114.397 163.48L113.885 162.07L113.863 162.078L113.84 162.087L114.397 163.48ZM112.868 163.99L112.504 162.535L112.496 162.537L112.489 162.539L112.868 163.99ZM105.217 163.99L105.612 162.543L105.604 162.541L105.596 162.539L105.217 163.99ZM94.6775 154.47L96.0872 153.957L96.0791 153.935L96.0702 153.913L94.6775 154.47ZM94.1675 152.94L95.6227 152.576L95.6188 152.561L95.6146 152.545L94.1675 152.94ZM94.1675 145.29L92.7181 144.903L92.7161 144.911L94.1675 145.29ZM99.2675 137.3L100.185 138.487L100.203 138.473L100.221 138.458L99.2675 137.3ZM150.947 43.5L149.648 44.25L196.413 125.25L197.712 124.5L199.011 123.75L152.246 42.75L150.947 43.5ZM156.143 196.5V195H62.6121V196.5V198H156.143V196.5ZM21.0429 124.5L22.3419 125.25L69.1073 44.25L67.8083 43.5L66.5092 42.75L19.7439 123.75L21.0429 124.5ZM62.6121 196.5V195C48.941 195 38.7917 194.998 31.07 194.29C23.3405 193.581 18.292 192.179 14.6833 189.557L13.8017 190.771L12.92 191.984C17.1973 195.092 22.9125 196.554 30.796 197.278C38.6873 198.002 49.0002 198 62.6121 198V196.5ZM21.0429 124.5L19.7439 123.75C12.9379 135.538 7.78013 144.469 4.46145 151.665C1.14605 158.854 -0.444874 164.535 0.107771 169.793L1.59955 169.636L3.09134 169.479C2.62508 165.043 3.93508 159.97 7.1857 152.921C10.4331 145.88 15.5064 137.089 22.3419 125.25L21.0429 124.5ZM13.8017 190.771L14.6833 189.557C8.14878 184.809 3.93563 177.512 3.09134 169.479L1.59955 169.636L0.107771 169.793C1.04094 178.671 5.69758 186.737 12.92 191.984L13.8017 190.771ZM197.712 124.5L196.413 125.25C203.249 137.09 208.322 145.88 211.569 152.921C214.82 159.97 216.13 165.043 215.664 169.479L217.155 169.636L218.647 169.793C219.2 164.535 217.609 158.854 214.294 151.665C210.975 144.469 205.817 135.538 199.011 123.75L197.712 124.5ZM156.143 196.5V198C169.755 198 180.068 198.002 187.959 197.278C195.843 196.554 201.558 195.092 205.835 191.984L204.953 190.771L204.072 189.557C200.463 192.179 195.414 193.581 187.685 194.29C179.963 194.998 169.814 195 156.143 195V196.5ZM217.155 169.636L215.664 169.479C214.819 177.512 210.606 184.809 204.072 189.557L204.953 190.771L205.835 191.984C213.057 186.737 217.714 178.671 218.647 169.793L217.155 169.636ZM150.947 43.5L152.246 42.75C145.44 30.9617 140.285 22.0297 135.712 15.5576C131.144 9.09193 127.02 4.87374 122.19 2.72332L121.58 4.09364L120.969 5.46395C125.044 7.27823 128.783 10.9493 133.262 17.2887C137.736 23.6217 142.812 32.4105 149.648 44.25L150.947 43.5ZM67.8083 43.5L69.1073 44.25C75.9429 32.4105 81.0188 23.6217 85.4932 17.2887C89.972 10.9493 93.7106 7.27823 97.7855 5.46395L97.1754 4.09364L96.5653 2.72332C91.7354 4.87374 87.6111 9.09193 83.043 15.5576C78.4704 22.0297 73.3152 30.9617 66.5092 42.75L67.8083 43.5ZM121.58 4.09364L122.19 2.72332C114.034 -0.907772 104.721 -0.907772 96.5653 2.72332L97.1754 4.09364L97.7855 5.46395C105.164 2.17868 113.591 2.17868 120.969 5.46395L121.58 4.09364ZM106.067 44.82L106.348 46.2935C108.493 45.885 110.636 45.9852 112.795 46.6023L113.207 45.16L113.62 43.7177C111.019 42.9748 108.402 42.8483 105.787 43.3465L106.067 44.82ZM113.207 45.16L112.836 46.6134C117.694 47.8536 120.932 50.7423 122.684 55.3801L124.087 54.85L125.491 54.3199C123.389 48.7577 119.374 45.1864 113.579 43.7066L113.207 45.16ZM124.087 54.85L122.638 55.2365C122.806 55.8649 122.899 56.986 122.843 58.7116C122.789 60.4032 122.596 62.562 122.26 65.2001L123.747 65.39L125.235 65.5799C125.579 62.8913 125.783 60.6301 125.842 58.8084C125.899 57.0206 125.823 55.5351 125.537 54.4635L124.087 54.85ZM123.747 65.39L122.265 65.1619C121.812 68.108 120.508 76.5508 118.355 90.491L119.837 90.72L121.32 90.949C123.473 77.0092 124.777 68.5653 125.23 65.6181L123.747 65.39ZM119.837 90.72L118.355 90.4919C116.769 100.801 115.483 108.602 114.495 113.905C114.001 116.56 113.586 118.568 113.249 119.943C113.079 120.634 112.937 121.136 112.822 121.47C112.764 121.638 112.724 121.734 112.703 121.777C112.659 121.866 112.715 121.71 112.911 121.541L113.887 122.68L114.864 123.819C115.16 123.565 115.324 123.246 115.398 123.095C115.494 122.897 115.581 122.673 115.659 122.445C115.817 121.985 115.985 121.382 116.163 120.657C116.52 119.199 116.947 117.126 117.445 114.455C118.441 109.104 119.733 101.266 121.32 90.9481L119.837 90.72ZM113.887 122.68L113.297 121.301C113.311 121.295 113.176 121.345 112.763 121.391C112.387 121.434 111.877 121.464 111.221 121.478C109.912 121.505 108.11 121.464 105.801 121.352L105.727 122.85L105.654 124.348C107.992 124.462 109.873 124.507 111.284 124.477C111.988 124.463 112.598 124.429 113.1 124.372C113.565 124.32 114.068 124.235 114.478 124.059L113.887 122.68ZM105.727 122.85V121.35C105.294 121.35 105.004 121.336 104.831 121.317C104.741 121.307 104.724 121.3 104.752 121.307C104.766 121.311 104.82 121.326 104.893 121.361C104.958 121.391 105.106 121.467 105.258 121.619L104.197 122.68L103.137 123.741C103.458 124.062 103.84 124.168 103.962 124.202C104.146 124.252 104.334 124.28 104.499 124.298C104.836 124.336 105.254 124.35 105.727 124.35V122.85ZM104.197 122.68L104.969 121.394C105.151 121.503 105.031 121.525 104.787 120.901C104.578 120.367 104.357 119.571 104.138 118.476L102.667 118.77L101.197 119.064C101.431 120.236 101.692 121.225 101.993 121.994C102.259 122.673 102.677 123.517 103.426 123.966L104.197 122.68ZM102.667 118.77L104.147 118.523C103.809 116.493 102.337 107.154 99.7295 90.4881L98.2475 90.72L96.7655 90.9519C99.3713 107.606 100.846 116.967 101.188 119.017L102.667 118.77ZM98.2475 90.72L99.7303 90.4937C98.0874 79.7298 96.885 71.4819 96.1219 65.7447C95.7402 62.8746 95.4699 60.6441 95.3094 59.0457C95.229 58.2454 95.1775 57.617 95.1527 57.1527C95.1403 56.9204 95.1352 56.7406 95.1356 56.6077C95.136 56.4616 95.143 56.4187 95.1401 56.4381L93.6575 56.21L92.1749 55.9819C92.1198 56.3402 92.1311 56.828 92.157 57.3126C92.1853 57.8435 92.2418 58.5238 92.3244 59.3455C92.4897 60.9913 92.7648 63.2587 93.1481 66.1403C93.915 71.9064 95.1209 80.1768 96.7647 90.9463L98.2475 90.72ZM93.6575 56.21H95.1575C95.1575 56.2667 95.1515 56.2849 95.1583 56.2441C95.1641 56.2095 95.1759 56.151 95.1977 56.0638C95.2416 55.8884 95.3137 55.6449 95.4205 55.3243L93.9975 54.85L92.5745 54.3756C92.4547 54.7351 92.3568 55.0582 92.2873 55.3362C92.2253 55.584 92.1575 55.903 92.1575 56.21H93.6575ZM93.9975 54.85L95.4304 55.2935C96.7324 51.0871 99.7534 48.2383 104.787 46.77L104.367 45.33L103.947 43.89C98.1016 45.595 94.2093 49.0928 92.5646 54.4065L93.9975 54.85ZM104.367 45.33L104.925 46.7227C105.411 46.5282 105.89 46.3853 106.362 46.2909L106.067 44.82L105.773 43.3491C105.112 43.4814 104.457 43.6785 103.81 43.9373L104.367 45.33ZM106.237 133.9L106.581 135.36C108.201 134.979 110.149 135.053 112.473 135.687L112.868 134.24L113.262 132.793C110.599 132.067 108.127 131.914 105.894 132.44L106.237 133.9ZM112.868 134.24L112.504 135.695C117.01 136.822 120.09 139.538 121.843 143.971L123.237 143.42L124.632 142.869C122.532 137.556 118.698 134.151 113.231 132.785L112.868 134.24ZM123.237 143.42L121.951 144.192C122.19 144.59 122.354 145.034 122.438 145.537L123.917 145.29L125.397 145.043C125.254 144.186 124.965 143.383 124.524 142.648L123.237 143.42ZM123.917 145.29L122.466 145.669C123.083 148.033 123.078 150.316 122.47 152.545L123.917 152.94L125.365 153.335C126.117 150.577 126.112 147.761 125.369 144.911L123.917 145.29ZM123.917 152.94L122.466 152.561C121.228 157.306 118.4 160.429 113.885 162.07L114.397 163.48L114.91 164.89C120.369 162.905 123.887 159 125.369 153.319L123.917 152.94ZM114.397 163.48L113.84 162.087C113.319 162.296 112.875 162.442 112.504 162.535L112.868 163.99L113.231 165.445C113.767 165.311 114.343 165.117 114.955 164.873L114.397 163.48ZM112.868 163.99L112.489 162.539C110.125 163.155 107.842 163.151 105.612 162.543L105.217 163.99L104.823 165.437C107.58 166.189 110.397 166.185 113.246 165.441L112.868 163.99ZM105.217 163.99L105.596 162.539C100.851 161.301 97.7289 158.472 96.0872 153.957L94.6775 154.47L93.2678 154.983C95.2527 160.441 99.1572 163.959 104.839 165.441L105.217 163.99ZM94.6775 154.47L96.0702 153.913C95.8616 153.391 95.7155 152.947 95.6227 152.576L94.1675 152.94L92.7123 153.304C92.8461 153.839 93.0401 154.415 93.2848 155.027L94.6775 154.47ZM94.1675 152.94L95.6146 152.545C95.0066 150.316 95.0022 148.033 95.6189 145.669L94.1675 145.29L92.7161 144.911C91.9728 147.761 91.9684 150.577 92.7204 153.335L94.1675 152.94ZM94.1675 145.29L95.6169 145.676C96.4492 142.555 97.982 140.189 100.185 138.487L99.2675 137.3L98.3503 136.113C95.5663 138.264 93.6992 141.225 92.7181 144.904L94.1675 145.29ZM99.2675 137.3L100.221 138.458C101.956 137.03 104.071 135.988 106.601 135.355L106.237 133.9L105.874 132.445C102.964 133.172 100.433 134.397 98.3139 136.142L99.2675 137.3Z" fill="#838383"/>
</svg>
